<svg version="1.1" id="Layer_1" xmlns="http://www.w3.org/2000/svg" xmlns:xlink="http://www.w3.org/1999/xlink" x="0px" y="0px"
	 width="100%" viewBox="0 0 1024 1024" enable-background="new 0 0 1024 1024" xml:space="preserve">
<path fill="#2B2C2F" opacity="1.000000" stroke="none" 
	d="
M542.000000,1025.000000 
	C362.833344,1025.000000 184.166656,1024.986450 5.500056,1025.093872 
	C1.750704,1025.096069 0.905801,1024.249146 0.906913,1020.500000 
	C1.007246,682.166687 1.007246,343.833344 0.906913,5.500028 
	C0.905801,1.750903 1.750902,0.905800 5.500028,0.906912 
	C343.833344,1.007255 682.166687,1.007255 1020.500000,0.906912 
	C1024.249146,0.905800 1025.094360,1.750902 1025.093262,5.500027 
	C1024.992920,343.833344 1024.992798,682.166687 1025.093140,1020.500000 
	C1025.094238,1024.249146 1024.249390,1025.096558 1020.499939,1025.093994 
	C861.166687,1024.984741 701.833313,1025.000000 542.000000,1025.000000 
z"/>
<path fill="#F88533" opacity="1.000000" stroke="none" 
	d="
M776.769653,387.347595 
	C777.322327,387.015472 777.627136,386.873718 778.178650,386.676819 
	C780.444702,386.662567 782.825806,383.286438 784.244385,387.676086 
	C765.261658,399.508850 745.904297,409.924225 726.420837,420.095337 
	C632.914124,468.909668 535.835632,509.378815 436.336517,544.206909 
	C400.642609,556.701050 364.600677,568.100830 328.177246,579.486938 
	C326.555450,582.217712 323.907837,582.695312 321.605743,583.357239 
	C303.446503,588.578979 285.512177,594.605652 266.635254,598.757446 
	C235.689819,607.629883 204.829773,615.080383 173.463043,620.359131 
	C171.626984,620.668213 169.842514,620.932068 167.721588,619.958618 
	C165.992355,615.431946 169.781830,615.612793 171.906006,615.061646 
	C180.779556,612.759460 189.439438,609.806824 198.146576,606.986450 
	C230.965454,596.355896 261.479401,580.813232 291.123871,563.413147 
	C292.984161,562.321289 294.740540,560.973511 297.430084,561.296143 
	C299.587158,562.610535 299.230347,564.413269 299.212158,566.397400 
	C299.914764,566.991272 300.487061,566.802124 301.408142,566.586609 
	C315.816193,561.965637 329.663788,556.789917 344.184418,552.429565 
	C356.780945,547.500305 369.480347,544.059692 381.883545,539.744019 
	C383.313599,539.246460 384.784393,538.963806 386.638672,539.704895 
	C413.502838,531.433777 439.581299,521.786072 465.717407,512.314758 
	C549.960327,481.786316 633.196350,448.689209 715.735901,413.835663 
	C734.904907,405.741272 753.903687,397.243927 773.331299,388.856567 
	C774.722534,388.581665 775.642700,388.106659 776.769653,387.347595 
z"/>
<path fill="#F18332" opacity="1.000000" stroke="none" 
	d="
M655.500610,390.213684 
	C660.110168,365.812439 660.603577,341.488678 657.000305,317.076538 
	C656.254089,312.020630 654.923035,307.107483 651.924072,301.341980 
	C649.857178,323.041931 646.673157,343.017517 626.259827,354.356750 
	C638.361877,344.867859 643.745422,331.813171 645.813843,317.121094 
	C648.398865,298.759338 644.299438,281.503235 636.067688,277.314392 
	C641.007996,276.101196 639.711731,272.778107 639.002930,269.821930 
	C638.267151,266.753448 637.199402,263.764587 636.229187,260.365326 
	C637.771423,256.795288 639.713196,254.099045 644.260742,254.640381 
	C648.192688,263.065033 650.135132,271.819031 651.523132,280.735138 
	C652.583984,287.549744 653.716370,288.317108 660.328430,286.334747 
	C664.045593,285.220367 667.668152,284.148895 671.581665,285.008514 
	C673.052917,285.331696 674.060974,284.287292 675.228821,283.684601 
	C684.260742,279.023895 693.880737,276.190826 704.020813,276.509644 
	C709.117004,276.669891 711.840515,274.880768 713.744141,270.279236 
	C715.432190,270.384247 716.781006,269.609406 718.553284,269.885284 
	C731.666809,269.907990 744.200256,269.390259 754.907532,260.844421 
	C758.797791,257.739502 762.669128,253.957382 768.725220,254.311676 
	C775.695251,252.773422 781.841370,250.548843 784.944153,243.660400 
	C786.431458,240.358368 789.881531,239.880463 792.883118,239.099777 
	C818.205505,232.513718 842.897766,224.142685 866.641418,213.104919 
	C877.948730,207.848465 889.140808,202.344482 900.413330,197.012268 
	C901.894226,196.311768 903.819946,194.396561 905.007935,197.110840 
	C906.055054,199.503143 903.406799,199.645737 902.171448,200.314957 
	C877.323547,213.776749 852.895081,228.102493 826.129578,237.659256 
	C820.339355,239.726685 814.542542,241.775436 808.409363,243.993317 
	C806.774170,246.491074 803.968872,245.658585 802.630249,246.826385 
	C804.179321,246.267761 806.146667,245.414322 808.675232,245.836945 
	C811.294800,245.606842 813.574951,245.099304 815.879150,244.940216 
	C826.900879,244.179230 834.449707,248.792908 838.856506,258.863770 
	C839.312866,259.906586 839.285706,261.189819 840.778931,262.186096 
	C848.246643,256.937714 855.827332,251.549210 863.470520,246.250687 
	C880.306091,234.579681 897.160156,222.935196 914.056274,211.352112 
	C915.188660,210.575775 916.508911,208.421829 918.184998,210.741989 
	C919.689392,212.824387 917.886353,213.748383 916.571777,214.662521 
	C892.865906,231.147186 872.854492,252.230927 849.194702,268.757721 
	C845.862427,271.085419 845.458252,274.567078 844.696228,277.850769 
	C842.681335,286.533325 838.286072,293.398621 830.846069,298.439606 
	C824.505676,302.735596 818.362244,307.305420 813.265564,313.152435 
	C811.765320,314.873535 809.804993,316.381378 807.763428,317.403473 
	C803.609436,319.483185 800.479919,322.402130 798.011963,326.343964 
	C795.457825,330.423431 791.426758,332.715302 786.985535,334.547272 
	C774.004456,339.901886 761.496399,346.103058 751.325195,356.138489 
	C745.211792,362.170349 740.350769,369.064423 736.780090,376.877472 
	C735.690613,379.261322 734.504517,381.600952 732.619019,383.763580 
	C732.913635,371.530365 736.416382,359.876068 738.592834,348.025055 
	C740.778015,336.126282 746.663330,325.129852 747.207764,312.780548 
	C749.481628,326.251984 747.422485,339.385834 744.171753,352.828613 
	C746.907471,352.542908 747.717529,350.781219 748.829163,349.547760 
	C754.873291,342.840973 761.064880,336.259979 769.284546,332.193573 
	C781.624146,326.088898 787.387512,315.550415 789.846436,302.645905 
	C790.059265,301.529144 790.220032,300.402466 790.475525,298.852783 
	C792.541077,303.127472 792.168091,308.838989 789.413330,319.125061 
	C789.494385,319.854370 789.663635,320.158997 790.158203,320.436768 
	C804.520203,309.044922 805.714050,290.113159 794.583618,277.931000 
	C781.928894,264.080536 762.726257,262.601196 750.335754,274.559692 
	C752.787109,275.748566 755.398010,275.979187 758.387939,276.339111 
	C760.208618,277.462769 760.308533,278.783783 759.244263,280.616699 
	C748.846680,279.834381 738.699219,279.815674 728.546204,280.323120 
	C726.777527,280.411530 725.026245,280.845673 721.829407,281.344421 
	C739.079407,290.939545 740.981079,306.503845 741.262817,322.741364 
	C740.853699,321.171204 740.172119,319.617401 740.076477,318.028351 
	C738.742493,295.872925 719.635681,280.119629 693.388977,287.671448 
	C692.589172,287.901550 691.795837,288.154602 691.001465,288.403290 
	C687.649414,289.452606 683.197327,290.228424 681.854492,292.960541 
	C680.321594,296.079559 685.150696,297.770630 686.881775,300.329742 
	C693.917297,310.730438 696.802002,322.444702 697.964600,334.645264 
	C699.928650,355.256226 696.913452,375.494843 692.769287,395.612061 
	C692.642151,396.229279 692.618652,396.991730 691.293213,397.008820 
	C691.728027,393.425537 692.187317,389.887421 692.582581,386.342163 
	C694.988037,364.765961 693.852295,343.462250 687.529541,322.582550 
	C685.784729,316.820740 682.766663,311.632446 680.126953,306.254303 
	C676.633301,299.136383 671.090149,296.579651 663.617920,296.915710 
	C661.303345,297.019775 658.980164,296.931854 656.142578,296.931854 
	C657.610901,299.876373 659.053345,302.421661 660.185791,305.098114 
	C666.065674,318.994690 666.396057,333.638733 665.360474,348.320892 
	C664.646423,358.445099 662.423950,368.393707 660.231445,378.311584 
	C659.763000,380.430542 659.139893,382.448517 658.010864,384.689636 
	C658.338013,385.383545 658.486816,385.787109 658.145142,386.481567 
	C657.870850,386.692719 657.746216,386.883362 657.636108,386.912415 
	C657.503113,387.151672 657.480286,387.361877 657.239929,387.803040 
	C657.077820,388.475220 657.133240,388.916473 657.098022,389.681702 
	C656.663818,390.335327 656.259033,390.477814 655.500610,390.213684 
z"/>
<path fill="#F38431" opacity="1.000000" stroke="none" 
	d="
M493.569031,447.398132 
	C501.627075,444.150696 509.224182,440.712158 517.033508,437.853210 
	C537.220825,430.462799 556.008118,435.093567 574.051758,445.075256 
	C574.697998,445.432739 575.585388,445.757935 575.519348,446.783386 
	C574.793030,447.970398 573.818787,447.609436 572.870605,447.249084 
	C549.479858,438.360657 527.042786,441.736694 505.279083,452.682953 
	C498.553528,456.065643 491.404358,458.323242 484.491028,461.197968 
	C482.022827,462.224274 479.359344,463.286560 476.738922,462.790863 
	C465.360229,460.638367 455.778107,466.280365 445.645844,469.588257 
	C437.302795,472.312012 430.777985,476.120605 429.586090,486.347076 
	C428.838531,492.761017 424.169067,497.073578 417.526886,499.630676 
	C413.858582,501.042816 411.783752,505.734161 407.865112,507.927551 
	C402.839203,510.740723 398.593323,514.978638 392.578583,515.917114 
	C390.797394,516.195068 390.971313,517.769409 390.613251,518.998352 
	C389.278381,523.580322 387.379730,527.760620 382.344299,530.006775 
	C380.477905,531.543884 378.682098,531.319763 376.858734,530.944641 
	C374.745758,530.509766 372.679626,529.891235 370.668549,529.134583 
	C365.720398,527.272949 360.817780,525.073303 356.025269,529.551514 
	C355.464783,530.075256 354.452911,529.978394 353.247498,529.855835 
	C352.398682,529.574768 352.009552,529.260071 351.582886,528.471436 
	C354.607361,522.101685 360.549744,519.632996 366.411377,516.567871 
	C369.336090,516.107178 371.718964,516.962341 374.144226,517.516663 
	C379.025665,518.632263 379.287567,518.337830 380.256836,513.258362 
	C381.189758,508.369324 379.748932,503.958801 377.609558,499.810455 
	C373.078644,491.024780 366.137451,484.794128 356.691803,481.628937 
	C354.429932,480.871002 351.663696,479.282471 349.662384,481.469696 
	C347.539093,483.790161 348.633972,487.015442 349.453857,489.567780 
	C351.723724,496.633850 351.933899,496.659698 345.492340,500.646881 
	C324.834717,513.433594 303.966370,525.849426 282.441162,537.150635 
	C274.365326,541.390564 266.463257,545.957947 257.795013,549.818237 
	C250.136520,554.260437 242.517609,558.002930 234.481323,561.701294 
	C233.638504,562.330566 232.952637,562.555542 232.141464,563.219055 
	C229.800369,563.973267 227.967896,565.040222 226.631989,565.684998 
	C228.062668,564.936890 230.071289,563.951233 232.467743,563.014160 
	C233.128418,562.546875 233.520172,562.296753 234.197403,561.838684 
	C241.867081,558.364014 249.140366,554.879456 256.324524,550.418335 
	C258.778870,549.583069 260.682312,548.239868 263.357483,548.118774 
	C264.494690,548.523315 265.003693,549.089966 265.393860,550.231689 
	C265.412781,550.885620 265.361023,551.147522 265.123627,551.765747 
	C264.627991,552.559875 264.275177,552.959778 263.577942,553.581482 
	C244.988434,563.420715 226.193588,571.927185 207.293533,580.205444 
	C181.073517,591.689758 154.621262,602.592224 127.410652,611.549866 
	C119.191704,614.255554 110.908356,616.771240 102.482414,618.761292 
	C99.938576,619.362122 97.327026,620.395447 94.416534,618.668945 
	C109.016724,611.936279 123.904701,605.468018 139.096161,598.826782 
	C139.417831,596.626282 140.867737,595.828674 142.433914,595.152222 
	C151.574295,591.205017 160.477325,586.732056 170.012299,582.752075 
	C184.187775,576.626343 197.553711,569.684509 210.825058,562.586914 
	C217.678833,558.921509 224.764908,555.755981 231.908295,551.891357 
	C242.277405,545.528015 253.085068,540.765869 263.469421,535.193604 
	C280.293732,526.165649 297.250641,517.388367 313.792908,507.841858 
	C316.957733,506.015472 320.025299,504.054840 322.958771,501.863251 
	C325.219421,500.174347 327.584991,498.507385 331.077271,499.339966 
	C332.737183,498.560333 334.004364,497.768250 335.328461,497.086700 
	C338.189575,495.614014 339.000793,493.863556 338.083527,490.361877 
	C335.368561,479.997375 338.063171,475.461609 346.199768,468.645111 
	C356.294830,460.187836 367.365692,452.322021 371.997772,438.917633 
	C373.764893,433.803894 377.807739,430.490051 382.637604,428.226532 
	C397.398438,421.308807 411.783478,413.701324 425.662537,405.136688 
	C427.655273,403.907013 429.920715,402.941864 431.149261,400.937836 
	C436.766174,391.775452 445.520721,387.953583 455.583557,386.436523 
	C461.827393,385.495239 467.354370,383.047638 472.753235,379.302368 
	C473.658020,379.045593 474.165619,378.767456 474.742432,378.092346 
	C474.893646,377.840698 474.920685,377.921936 474.878784,377.930695 
	C475.156952,377.829529 475.418701,377.639404 475.817993,377.220947 
	C476.206451,376.886902 476.422180,376.733490 476.842346,376.530334 
	C480.572205,377.200348 483.563782,378.621918 484.275726,382.942017 
	C481.773895,384.636261 479.419800,385.993988 477.065735,387.351715 
	C477.059326,387.824615 477.052917,388.297485 477.046509,388.770386 
	C491.379211,387.431763 504.642822,390.789001 517.639343,396.921021 
	C518.110596,397.290619 518.240540,397.557312 518.223022,398.243835 
	C496.130859,393.898987 474.163361,393.533569 452.073151,397.942535 
	C462.188385,401.224884 469.991821,406.916077 474.858948,416.679810 
	C474.596680,418.208344 474.458740,419.456848 473.093964,420.475159 
	C470.722046,420.777832 469.378937,419.469696 467.986389,418.285278 
	C466.591797,417.099152 465.307770,415.794769 463.824493,414.699188 
	C451.006165,405.231354 447.808441,405.070374 434.326355,413.426208 
	C428.943695,416.762268 423.594574,420.156250 418.007233,423.142487 
	C412.429871,426.123413 406.729523,428.866119 401.095306,431.646240 
	C412.095093,435.172852 421.090637,441.218384 426.483002,451.791534 
	C428.177216,455.113464 429.118683,458.580414 428.534790,462.398773 
	C428.232056,464.378174 427.689209,466.142090 425.560089,466.467621 
	C423.119843,466.840668 422.551117,464.781372 422.085510,463.009277 
	C420.411621,456.638794 416.821777,451.446442 411.818848,447.388733 
	C404.053101,441.090332 395.461304,437.832886 385.399445,441.717590 
	C383.940460,442.280884 382.797119,443.159790 381.509766,444.461731 
	C381.055573,444.873993 380.817047,445.032043 380.555481,445.150635 
	C380.272095,445.279236 380.353577,445.246094 381.048035,444.864136 
	C384.136871,441.910156 387.580627,441.144714 391.363464,441.820343 
	C392.688446,442.056946 393.901794,442.814575 394.142395,444.314331 
	C394.354584,445.636963 393.334717,446.397430 392.444183,447.134033 
	C391.546753,447.876343 390.533997,448.471313 389.466827,448.910614 
	C379.006287,453.216553 370.858063,460.718994 362.541565,468.528778 
	C362.260681,469.044342 362.138855,469.243439 361.783264,469.697937 
	C359.207550,471.447113 359.207550,471.447113 361.083130,472.682770 
	C361.619476,472.830933 361.832123,472.907104 362.348206,473.143463 
	C370.643433,477.487701 377.980225,482.385559 383.512695,489.806396 
	C385.960968,493.090424 387.565430,496.591888 389.046997,500.293213 
	C389.737549,502.018372 389.810944,504.784943 392.271027,504.752533 
	C394.559174,504.722412 395.857544,502.607117 396.764648,500.547852 
	C397.099243,499.788330 397.379883,499.003845 397.985596,497.975616 
	C398.976074,496.734192 400.051727,496.196106 401.451324,495.556519 
	C403.102264,495.351227 404.330872,497.167725 405.953979,495.434692 
	C407.272491,494.444244 408.666016,494.299866 409.916534,493.192261 
	C412.300323,489.129944 412.119263,483.601318 409.761810,480.619995 
	C408.935394,479.574860 408.081848,479.034454 406.727570,480.499329 
	C406.076324,480.957458 405.668945,481.154694 404.909485,481.365723 
	C402.231689,481.512848 400.570892,482.832031 398.853333,484.724792 
	C397.654907,485.626801 396.787354,486.413086 395.450500,487.142578 
	C393.107269,488.059814 391.277191,489.275055 389.175415,489.857666 
	C387.356476,490.361816 385.275482,490.837738 384.137634,489.040924 
	C382.942566,487.153717 384.450226,485.497803 385.812622,484.297241 
	C389.319519,481.206940 393.310913,478.725098 397.314026,476.388611 
	C402.241699,473.512543 406.222656,470.088074 408.160095,464.539642 
	C408.733521,462.897461 409.595490,460.552887 411.763336,461.064667 
	C413.767151,461.537689 414.125702,463.998962 413.734985,465.728638 
	C412.241882,472.338531 419.049438,474.880493 420.124512,481.394196 
	C422.137787,477.043365 424.608032,474.518738 424.841064,470.761780 
	C425.026306,467.774750 427.220581,466.193848 429.897186,465.188904 
	C439.079926,461.741028 447.572144,456.644104 457.014496,453.811951 
	C461.235107,452.546051 463.574646,448.809570 467.145935,446.118286 
	C468.179352,445.439880 469.068420,445.150391 469.780884,444.055237 
	C470.163666,443.611481 470.334320,443.446442 470.805969,443.081726 
	C471.333679,442.794220 471.560303,442.706390 472.140808,442.522339 
	C474.157379,441.783966 475.820435,441.196014 477.725586,442.694824 
	C477.471069,445.459381 476.673096,447.749725 474.616516,449.417755 
	C473.889679,450.007294 472.700714,450.762970 473.598114,451.750183 
	C474.123230,452.327881 475.439972,452.408508 476.376801,452.347565 
	C479.180603,452.165039 481.380493,449.717834 484.788361,450.070557 
	C485.283844,449.862335 485.364349,449.700012 485.716614,449.538635 
	C485.988373,449.539581 486.140411,449.251648 486.290100,449.187500 
	C488.276215,446.858948 490.649139,446.791046 493.569031,447.398132 
z"/>
<path fill="#FDFBFA" opacity="1.000000" stroke="none" 
	d="
M366.918213,517.277344 
	C362.061157,521.053223 357.493958,524.608887 352.155121,527.634155 
	C349.735962,531.846558 345.850372,533.966919 342.304077,536.307251 
	C330.090759,544.367493 317.552124,551.918884 305.049683,559.522095 
	C303.092957,560.711975 301.225586,562.270996 298.322021,561.942261 
	C284.257172,569.318237 270.812195,577.226624 256.899994,584.321960 
	C229.407715,598.343262 200.844116,609.421936 170.933868,617.028259 
	C169.487473,617.396057 168.075806,617.900391 166.320709,618.614136 
	C165.368912,620.440857 164.129532,621.236572 162.551147,621.400879 
	C152.981018,622.397461 143.523071,624.136841 133.863510,624.684753 
	C124.555389,625.212830 115.281136,625.586487 105.529495,625.256348 
	C100.840668,623.102661 96.140076,624.574768 91.396484,623.190735 
	C90.582306,622.860413 90.148148,622.772644 89.384071,622.745972 
	C87.853271,622.973022 86.651726,623.146667 85.230530,622.285522 
	C87.212677,619.293457 90.937042,620.192139 93.905098,618.508362 
	C108.425781,615.909485 122.148003,611.342773 135.798050,606.601013 
	C179.507690,591.417175 221.605438,572.453979 263.381073,551.762329 
	C264.038361,551.390259 264.373291,551.255127 265.156921,550.816406 
	C265.857544,548.579468 267.653259,548.171753 269.173706,547.020569 
	C270.096497,546.557800 270.747345,546.326294 271.661255,545.836792 
	C283.080353,539.347107 294.837402,534.260986 306.269470,527.795532 
	C306.710754,527.394043 306.881897,527.224365 307.343964,526.835205 
	C308.249756,526.208130 308.900818,525.860535 309.853271,525.275330 
	C325.504272,517.355286 341.191711,510.377380 356.471161,502.554749 
	C359.719513,500.891724 363.251099,498.041138 366.830750,502.076416 
	C370.455475,506.162506 370.605438,512.831360 366.918213,517.277344 
z"/>
<path fill="#FA8734" opacity="1.000000" stroke="none" 
	d="
M465.250366,702.047974 
	C454.902222,676.845825 441.694061,653.609131 425.865997,631.826599 
	C424.282806,629.647766 423.454254,630.540039 422.081757,631.760681 
	C404.576202,647.329834 385.256195,660.329407 364.823364,671.677856 
	C352.460846,678.544067 340.013855,685.292786 326.393127,690.513855 
	C322.198029,686.525635 320.312073,680.992859 316.137238,677.101013 
	C315.428802,676.440552 315.452179,675.244019 316.766449,674.326660 
	C346.425507,659.771912 374.010132,642.699524 399.712494,622.398315 
	C416.540436,609.106628 427.816345,592.127686 437.069061,573.317871 
	C439.474823,568.427246 442.351746,563.768372 445.334778,558.897339 
	C452.771698,558.660645 459.405579,559.695435 463.889618,566.628906 
	C457.277893,581.298218 450.645844,595.643982 443.715546,609.844116 
	C442.266052,612.814148 442.706757,615.031006 444.089478,617.678833 
	C449.574493,628.182129 457.015961,637.473633 462.688873,647.846802 
	C471.653748,664.239441 479.066467,681.314392 484.850281,699.468994 
	C482.482941,701.295044 479.704987,701.120178 477.055939,701.598328 
	C474.651672,702.032227 472.327301,702.867065 470.284424,704.327026 
	C469.077484,705.189575 467.819336,706.161194 466.292297,704.225403 
	C466.154327,703.878174 466.004578,703.933838 466.082520,703.918274 
	C465.512878,703.576538 465.518677,702.914368 465.250366,702.047974 
z"/>
<path fill="#F48634" opacity="1.000000" stroke="none" 
	d="
M644.591125,254.366013 
	C641.364014,255.403519 640.013977,259.001404 636.520081,259.926025 
	C634.057312,255.660812 632.201477,251.173798 629.761414,247.030930 
	C620.195312,230.789185 604.664429,223.577225 586.172546,226.886856 
	C570.279236,229.731415 556.695068,237.003952 545.633118,248.889160 
	C541.283081,253.562943 538.861450,258.999481 537.760437,265.272858 
	C537.103821,269.014069 538.504639,270.899689 541.705444,272.160034 
	C545.032349,273.470093 548.492004,273.847717 552.004272,273.698181 
	C555.663696,273.542328 559.314697,273.187561 563.430420,272.885193 
	C564.919434,272.402466 565.930603,272.285736 566.856750,273.400879 
	C557.869202,276.430420 548.978821,279.520111 539.427673,277.043457 
	C538.432495,276.785370 537.304443,276.546295 537.175171,278.000214 
	C537.035645,279.569000 536.521423,281.260010 538.729553,282.182190 
	C542.619507,283.806702 546.591553,284.903503 550.815857,284.953339 
	C557.682251,285.034332 564.413330,283.978180 571.508301,282.338379 
	C572.070435,282.511230 572.210571,282.810699 572.196533,283.581512 
	C561.921387,288.739746 551.510498,290.924744 540.550781,287.374939 
	C538.263977,286.634186 537.676636,287.001526 537.732727,289.461823 
	C537.921021,297.716217 540.311279,300.349762 548.678528,300.725494 
	C561.492004,301.300934 573.323975,297.291656 584.946777,292.583496 
	C589.203918,290.859070 593.472778,289.974640 598.061768,290.040649 
	C603.315796,290.116211 604.364746,294.124298 605.947021,297.783478 
	C607.457825,301.277435 607.119263,304.117218 603.701172,306.427002 
	C590.032959,315.663208 576.323120,324.785461 559.587830,327.598206 
	C557.636841,327.926117 555.633362,327.941132 553.644836,328.101990 
	C556.867737,335.715912 559.909241,337.775940 567.925781,337.146942 
	C572.051880,336.823212 576.132874,335.925354 580.668213,335.140625 
	C576.354614,337.732971 571.650452,340.589935 565.957886,340.893188 
	C563.734436,341.011688 563.964111,342.060547 564.927673,343.451904 
	C570.095276,350.913239 575.848083,357.938110 584.035889,362.123505 
	C590.390869,365.372009 597.045166,363.632965 603.821411,361.201294 
	C604.998413,360.319824 605.948242,360.522003 607.146606,361.051270 
	C593.254272,370.647491 579.709900,369.489105 567.543762,357.856964 
	C560.097229,350.737366 553.081177,343.201660 546.421082,335.054779 
	C541.170349,327.726135 539.220703,318.697113 534.694885,311.629517 
	C529.895813,304.135162 527.974915,296.646271 526.947266,288.492462 
	C522.937927,256.678955 532.848938,238.698441 563.939087,223.118958 
	C576.077209,217.036469 589.103821,213.452820 603.027222,215.939331 
	C619.241211,218.834900 630.536377,228.481796 639.020020,242.423050 
	C640.081970,245.036865 640.567749,247.563538 642.552856,249.735519 
	C643.356384,251.337296 643.948364,252.670456 644.591125,254.366013 
z"/>
<path fill="#FA8734" opacity="1.000000" stroke="none" 
	d="
M484.682129,701.594299 
	C508.644592,701.835266 524.877014,725.810791 514.646851,747.870789 
	C509.032043,759.978455 496.754913,767.309204 483.197479,766.520508 
	C468.904541,765.689026 457.593048,757.087158 453.435760,743.888062 
	C449.273468,730.673096 453.211670,717.890015 464.166138,709.078186 
	C464.683258,708.662231 465.235657,708.290039 466.017944,707.683472 
	C471.084351,701.885071 477.383240,700.683899 484.682129,701.594299 
z"/>
<path fill="#FB8834" opacity="1.000000" stroke="none" 
	d="
M322.503235,692.721313 
	C324.697357,708.167053 320.025146,719.984802 308.369354,726.612000 
	C296.696472,733.249084 284.849213,733.192444 273.599854,725.335876 
	C259.592896,715.553284 256.513062,695.759216 266.702393,682.045837 
	C277.273041,667.819458 296.567749,665.033020 310.655518,675.948303 
	C317.293793,677.451538 323.028412,685.426758 322.503235,692.721313 
z"/>
<path fill="#FC8935" opacity="1.000000" stroke="none" 
	d="
M560.607544,659.298340 
	C559.604858,655.250122 559.760925,651.524597 560.817871,647.419800 
	C563.157715,644.691895 565.906250,642.549927 563.942078,638.341309 
	C564.812195,634.474792 566.302917,631.464722 570.569946,630.425476 
	C580.551636,624.019348 590.728149,621.245239 602.068237,625.296936 
	C615.699402,630.167297 623.616638,643.890320 621.212097,658.634705 
	C618.863342,673.037109 606.482788,683.887207 592.292847,684.140442 
	C577.854919,684.398132 568.051758,677.557800 562.008789,664.390137 
	C561.117615,662.681824 561.693176,660.930725 560.607544,659.298340 
z"/>
<path fill="#F98835" opacity="1.000000" stroke="none" 
	d="
M557.959229,644.638794 
	C538.864319,635.139343 520.991333,624.226624 505.925354,609.336365 
	C498.278473,601.778687 492.176575,593.113770 489.550201,582.362732 
	C487.332092,573.283020 488.606293,564.919678 491.921661,556.101074 
	C495.781342,545.834717 501.417908,538.699951 512.446838,536.480347 
	C514.155029,536.136536 515.759644,535.278076 518.118713,534.392334 
	C515.823242,541.053589 514.038147,547.065002 511.701538,552.853760 
	C505.446106,568.351074 509.593048,581.402649 520.440308,593.178284 
	C533.453735,607.305603 549.032837,618.016052 565.750793,627.803223 
	C566.823059,629.675354 565.958130,631.016785 565.038269,632.113892 
	C561.937012,635.812683 559.854004,640.026672 557.959229,644.638794 
z"/>
<path fill="#3D322E" opacity="1.000000" stroke="none" 
	d="
M91.299530,623.198853 
	C95.403214,623.226746 99.789955,623.505249 104.573120,623.900696 
	C114.746193,625.094360 124.520088,624.544617 134.280914,623.848450 
	C146.460449,622.979919 158.536041,621.566162 170.848587,621.505066 
	C184.801392,621.435791 198.804642,620.391296 212.770294,616.949097 
	C230.175476,612.658997 246.254257,605.179077 263.110077,599.687866 
	C264.106567,599.363220 264.729034,598.551819 265.724609,597.543823 
	C286.388092,591.417908 306.732391,585.567932 327.472809,579.702271 
	C328.142426,581.983521 327.292358,583.397095 324.981293,584.205261 
	C322.016083,585.242065 319.287323,586.877075 316.137390,587.514404 
	C314.539551,587.837708 312.635712,588.298645 311.579163,589.386169 
	C303.109253,598.104004 291.342285,600.146118 280.928436,604.941406 
	C275.521820,607.431091 270.151855,610.214111 265.287659,613.612305 
	C259.568054,617.607971 253.356369,619.854614 246.730347,621.663391 
	C235.864243,624.629761 224.904114,627.250916 214.282272,631.166138 
	C207.783905,633.561401 200.859589,634.976807 193.817734,634.979065 
	C176.264938,634.984558 158.695984,635.350891 141.164948,634.711182 
	C129.319534,634.278870 116.899689,634.272522 106.536087,627.594116 
	C101.617653,624.424683 96.094246,626.330566 91.299530,623.198853 
z"/>
<path fill="#3D322E" opacity="1.000000" stroke="none" 
	d="
M171.294281,583.891785 
	C160.761429,588.953003 150.434814,593.712585 139.753906,598.562988 
	C136.798828,593.514160 141.023972,590.541809 143.432068,587.337524 
	C145.473801,584.620728 148.304703,582.112976 151.328583,580.587402 
	C162.117554,575.144043 170.161041,566.069580 180.075134,559.480286 
	C186.002441,555.540771 192.520081,553.344116 199.110291,551.110840 
	C200.679016,550.579346 202.381470,550.091980 203.660370,549.111938 
	C212.866104,542.057068 224.112808,539.887756 234.626022,535.964172 
	C239.452469,534.162903 244.318405,532.361023 248.491318,529.280396 
	C253.973511,525.233276 260.533997,523.678467 266.708069,521.408447 
	C279.591827,516.671509 292.040588,510.795471 305.786438,508.232239 
	C311.948914,507.083099 318.136993,503.644562 322.767273,498.688660 
	C325.638947,495.615021 328.210938,494.996765 331.141785,499.064545 
	C311.545746,512.615784 290.185486,523.357605 269.127380,534.620850 
	C257.422974,540.881165 245.545822,546.818542 233.404022,552.972656 
	C226.794098,554.080200 220.787872,556.190430 215.202530,558.989319 
	C205.092804,564.055359 194.970871,569.084534 184.753586,573.931152 
	C179.755234,576.302124 175.690231,580.055603 171.294281,583.891785 
z"/>
<path fill="#F38433" opacity="1.000000" stroke="none" 
	d="
M804.177734,191.601929 
	C782.382874,208.438858 756.558289,212.048187 730.863281,216.041626 
	C725.603882,216.859009 720.175964,218.812500 715.107300,218.135223 
	C706.738037,217.016937 700.445923,220.754211 694.128174,224.702835 
	C687.521179,228.832291 680.972351,233.109756 675.431091,238.761566 
	C669.634583,244.673721 664.139526,250.941925 656.535278,255.257782 
	C661.022339,248.104843 665.332031,240.833038 670.030457,233.821747 
	C682.958923,214.529312 701.886108,205.295425 724.355408,203.703079 
	C751.152771,201.804031 777.494324,197.983582 803.538391,189.861542 
	C804.318115,190.271835 804.477234,190.744827 804.177734,191.601929 
z"/>
<path fill="#F48735" opacity="1.000000" stroke="none" 
	d="
M484.476898,383.204498 
	C482.454376,380.512024 479.155884,379.533234 477.135742,376.736420 
	C484.025604,372.163239 490.005554,366.974091 493.929871,359.495636 
	C495.805206,355.921906 499.531372,353.850037 503.172913,352.184814 
	C514.625122,346.947784 526.128113,341.820953 537.643433,336.723785 
	C540.064209,335.652252 542.599182,334.747162 545.732788,335.265686 
	C546.114075,335.037689 546.068359,335.013275 546.056274,334.991913 
	C545.152344,335.476624 545.001648,336.448853 545.463135,337.060974 
	C549.468262,342.373230 546.035095,344.011902 541.577698,345.497101 
	C538.339600,346.576111 535.250671,348.102875 531.815430,349.693146 
	C530.754761,352.325287 528.939209,353.057251 526.308105,353.074951 
	C521.361023,354.484589 516.733582,355.804260 511.984100,358.955902 
	C544.271912,368.505951 566.182983,387.962830 574.926758,420.504364 
	C568.617737,409.880951 561.435791,399.823090 552.349976,391.190552 
	C540.559509,379.988312 527.130432,371.634155 511.263580,367.559082 
	C509.027649,366.984863 506.659271,366.871399 504.340851,366.690277 
	C502.394257,366.538147 500.152649,367.153473 499.657501,368.916229 
	C497.479034,376.671936 490.445526,379.117706 484.476898,383.204498 
z"/>
<path fill="#ED8332" opacity="1.000000" stroke="none" 
	d="
M760.160461,425.321838 
	C734.092102,442.070831 707.425781,457.138794 680.128601,471.035614 
	C639.573547,491.681915 597.633850,509.087738 554.367004,523.248291 
	C552.843201,523.747009 551.283813,524.136780 549.458313,523.874146 
	C620.315186,492.439514 691.226868,461.230438 759.633057,423.951843 
	C760.322510,424.195038 760.461670,424.601227 760.160461,425.321838 
z"/>
<path fill="#F48634" opacity="1.000000" stroke="none" 
	d="
M779.996460,216.748627 
	C776.920715,219.872650 772.739014,220.560242 768.835938,221.840988 
	C756.104553,226.018585 742.937378,227.825882 729.637146,228.940842 
	C716.427734,230.048157 704.382996,234.630844 693.168152,241.557983 
	C689.270508,243.965515 686.448059,247.480606 683.515808,250.891861 
	C676.649231,258.880310 668.787354,265.679932 659.658936,271.071167 
	C658.531067,269.354156 658.824036,267.893738 659.941406,266.784668 
	C668.370239,258.418396 674.042175,247.849609 682.167664,239.222702 
	C695.385620,225.189102 712.404724,220.446564 730.754395,219.033859 
	C743.193176,218.076202 755.741150,218.992996 768.134338,217.041321 
	C771.092834,216.575424 774.048096,216.088943 777.436523,215.535614 
	C778.513123,215.787384 779.218750,215.995789 779.996460,216.748627 
z"/>
<path fill="#39302D" opacity="1.000000" stroke="none" 
	d="
M352.855530,529.253601 
	C353.534119,528.964417 353.898499,528.870850 354.101044,528.637085 
	C359.517853,522.384888 365.477173,524.559082 371.681183,527.240051 
	C374.696960,528.543274 378.036285,529.097717 381.621094,530.056763 
	C381.169861,534.461243 384.838684,536.389465 386.930511,539.529175 
	C373.457458,545.104553 359.526154,549.192261 345.388062,553.773560 
	C341.913025,550.076782 344.343536,546.784058 346.234314,543.861633 
	C348.653687,540.122253 350.177917,536.227600 350.683746,531.447754 
	C351.110352,530.266846 351.660065,529.694885 352.855530,529.253601 
z"/>
<path fill="#F48735" opacity="1.000000" stroke="none" 
	d="
M718.365967,271.237183 
	C716.711914,271.411285 715.302795,272.706665 714.104187,270.382141 
	C725.040894,256.737793 739.096558,248.699341 756.576843,245.831024 
	C757.452515,245.410934 757.939697,245.134201 758.809082,245.192322 
	C760.135864,245.184952 761.185059,245.130020 762.621582,244.999603 
	C764.095398,244.268875 765.267029,244.530045 766.651428,244.979614 
	C766.881287,245.352341 766.901489,245.693253 766.984741,245.842331 
	C768.677307,249.100021 766.325439,250.595718 764.400024,252.037003 
	C760.954163,254.616379 757.255432,256.908142 753.397339,258.750732 
	C742.245117,264.076996 731.276917,270.005829 718.365967,271.237183 
z"/>
<path fill="#ED8332" opacity="1.000000" stroke="none" 
	d="
M637.500305,403.964661 
	C625.084229,395.294922 612.114258,388.306580 598.881836,381.760437 
	C592.402893,378.555267 586.172852,374.949860 580.297119,369.718353 
	C590.156677,369.070190 627.042480,389.596069 637.940430,401.483093 
	C638.611572,402.553925 638.532715,403.292114 637.500305,403.964661 
z"/>
<path fill="#3D322E" opacity="1.000000" stroke="none" 
	d="
M718.304749,271.340942 
	C734.644836,265.561035 750.920898,259.390900 765.233093,249.015701 
	C766.034485,248.434753 766.819702,247.787720 767.008789,246.338867 
	C770.475647,247.769958 768.357910,251.001984 769.069214,253.954590 
	C762.218689,257.397797 756.513245,262.242096 750.330627,266.322723 
	C748.509338,267.524811 746.735168,268.737610 744.594910,269.136322 
	C735.996643,270.738098 727.398254,272.413330 718.304749,271.340942 
z"/>
<path fill="#D66E2F" opacity="1.000000" stroke="none" 
	d="
M464.267303,566.773560 
	C458.675964,563.192993 452.566986,561.081604 446.040436,558.919067 
	C454.390900,555.812195 463.124481,552.832642 472.741119,549.551819 
	C469.783142,555.664124 467.150879,561.103455 464.267303,566.773560 
z"/>
<path fill="#E17E33" opacity="1.000000" stroke="none" 
	d="
M493.538239,447.286133 
	C491.848053,448.566620 489.554840,449.006500 486.803284,449.102234 
	C492.738861,438.985718 492.001617,428.265320 488.713654,416.960510 
	C492.705780,421.471344 493.362518,423.874390 494.195038,436.115814 
	C496.844025,434.523621 496.844025,434.523621 501.376617,423.937836 
	C503.697510,431.519196 499.201263,436.400604 495.359222,441.483002 
	C494.359161,442.805847 493.108978,443.942200 492.136169,445.282196 
	C491.351807,446.362579 491.773468,447.119629 493.538239,447.286133 
z"/>
<path fill="#E17E33" opacity="1.000000" stroke="none" 
	d="
M578.868408,404.141296 
	C586.599182,409.402161 593.755737,414.782471 599.499390,421.805023 
	C600.445496,422.961700 601.414673,424.106323 602.270691,425.328339 
	C603.728577,427.409637 604.920898,429.620117 605.002625,432.255432 
	C601.710205,432.285736 602.077148,428.958923 600.698730,427.306458 
	C593.362915,418.512238 583.913208,412.272736 575.027405,405.347015 
	C573.747192,404.349152 572.081909,403.816620 571.227539,401.926270 
	C574.082520,401.504852 576.348633,402.625824 578.868408,404.141296 
z"/>
<path fill="#E17E33" opacity="1.000000" stroke="none" 
	d="
M526.273438,353.264496 
	C527.261475,351.528015 529.143860,350.896057 531.217163,350.006989 
	C531.988586,352.036530 533.816467,351.476654 535.155151,351.819763 
	C543.908325,354.063202 549.308105,360.361572 554.049377,367.618927 
	C546.049072,360.529236 536.429077,356.753265 526.273438,353.264496 
z"/>
<path fill="#ED8332" opacity="1.000000" stroke="none" 
	d="
M472.369751,421.061401 
	C472.935638,419.522705 472.872345,418.112305 474.526306,417.172058 
	C479.046661,425.050415 480.792847,433.405884 478.156006,442.663696 
	C476.223083,443.274261 474.488770,443.556335 472.381653,443.890686 
	C471.644928,443.541626 471.376801,443.084167 471.158752,442.174194 
	C473.064423,436.512085 473.499939,431.180908 471.904968,425.729523 
	C471.481689,424.282745 471.415558,422.786835 472.369751,421.061401 
z"/>
<path fill="#E17E33" opacity="1.000000" stroke="none" 
	d="
M622.763855,373.479950 
	C627.198364,374.893097 631.590088,375.312866 634.998901,378.430054 
	C629.594116,376.651367 623.755005,378.931183 618.494324,376.576996 
	C613.473328,374.330048 607.819641,373.169769 603.258362,368.337738 
	C610.442322,369.005493 616.222656,371.924194 622.763855,373.479950 
z"/>
<path fill="#D66E2F" opacity="1.000000" stroke="none" 
	d="
M784.408875,388.022522 
	C783.284180,384.716309 780.915161,386.862823 778.819214,386.659302 
	C789.471863,381.467590 800.518372,376.313507 811.564880,371.159454 
	C811.771240,371.535980 811.977661,371.912506 812.184082,372.289032 
	C803.042114,377.509430 793.900146,382.729828 784.408875,388.022522 
z"/>
<path fill="#9D5C2E" opacity="1.000000" stroke="none" 
	d="
M759.263306,281.071838 
	C758.977905,279.684906 758.987854,278.409424 758.891479,276.763245 
	C764.933594,275.278076 771.060364,274.274811 775.519104,280.322571 
	C775.982056,280.950409 776.335815,281.658661 776.588318,282.837708 
	C771.704590,278.991394 766.343140,284.558777 761.157715,281.335297 
	C760.391785,281.142426 759.975220,281.162872 759.263306,281.071838 
z"/>
<path fill="#9D5C2E" opacity="1.000000" stroke="none" 
	d="
M322.668396,692.857788 
	C319.962128,686.792236 317.321686,680.604065 311.122345,676.427002 
	C312.749847,675.537415 314.575836,674.915466 316.758423,674.249756 
	C315.850342,676.153748 317.598663,676.568115 318.659790,677.503479 
	C322.406952,680.806335 325.233887,684.711975 326.030396,690.225830 
	C324.980225,691.307007 323.938782,691.965820 322.668396,692.857788 
z"/>
<path fill="#ED8332" opacity="1.000000" stroke="none" 
	d="
M557.620911,644.711060 
	C556.410522,637.429382 561.968018,633.500427 565.803528,628.344971 
	C567.440613,628.700806 568.910339,629.340698 570.659668,630.183533 
	C569.067261,632.732727 567.195312,635.078979 565.161621,637.713867 
	C564.181274,641.568909 563.712219,645.468018 558.083740,644.763794 
	C557.677246,644.681335 557.636353,644.695190 557.620911,644.711060 
z"/>
<path fill="#503C30" opacity="1.000000" stroke="none" 
	d="
M485.035950,701.479736 
	C478.756378,702.742249 472.322968,703.180176 466.610168,707.334106 
	C466.210236,706.571594 466.156158,705.673584 466.128204,704.326904 
	C466.859558,704.125732 467.524536,705.148621 468.309753,704.343384 
	C472.752716,699.787476 478.400787,699.616760 484.543427,699.842773 
	C484.947815,700.268311 484.988403,700.708313 485.035950,701.479736 
z"/>
<path fill="#D66E2F" opacity="1.000000" stroke="none" 
	d="
M637.346558,404.157257 
	C637.398987,403.424866 637.707520,402.901520 638.063416,402.070740 
	C643.306335,404.909729 647.607117,409.018951 650.895630,414.310669 
	C646.464661,410.995880 642.033691,407.681091 637.346558,404.157257 
z"/>
<path fill="#D66E2F" opacity="1.000000" stroke="none" 
	d="
M784.673828,283.442566 
	C782.913330,281.318573 781.063416,279.678070 780.093811,276.832977 
	C785.878052,279.063232 787.973389,283.448456 788.606689,288.962769 
	C787.369568,287.212799 786.132446,285.462830 784.673828,283.442566 
z"/>
<path fill="#F98835" opacity="1.000000" stroke="none" 
	d="
M557.857788,644.887817 
	C561.486755,644.242188 562.297363,640.603577 564.709106,638.182617 
	C568.066833,644.375610 567.526672,645.855347 561.320618,647.014099 
	C559.964417,646.380066 559.001404,645.737183 557.857788,644.887817 
z"/>
<path fill="#D66E2F" opacity="1.000000" stroke="none" 
	d="
M760.231812,425.451111 
	C759.941406,425.187531 759.960876,424.807983 759.980957,424.143188 
	C765.497986,420.508759 771.014465,417.159546 776.530884,413.810364 
	C776.769287,414.165894 777.007629,414.521423 777.245972,414.876953 
	C771.677856,418.363007 766.109741,421.849060 760.231812,425.451111 
z"/>
<path fill="#9D5C2E" opacity="1.000000" stroke="none" 
	d="
M764.494629,317.793762 
	C763.549194,321.704529 761.953796,324.843567 759.624878,327.566193 
	C759.239807,327.386993 758.854797,327.207794 758.469727,327.028595 
	C760.343994,322.802002 762.218323,318.575409 764.255371,313.981720 
	C765.239075,315.378296 764.738464,316.429474 764.494629,317.793762 
z"/>
<path fill="#D66E2F" opacity="1.000000" stroke="none" 
	d="
M780.561646,217.059814 
	C779.551086,216.726181 778.914185,216.395370 778.072693,215.761932 
	C781.770813,214.299744 785.673401,213.140182 790.547546,211.691971 
	C787.625000,215.573044 783.968384,215.729446 780.561646,217.059814 
z"/>
<path fill="#553D30" opacity="1.000000" stroke="none" 
	d="
M808.866211,245.739975 
	C805.876099,246.994598 802.752686,248.056396 799.080688,247.186874 
	C801.828247,246.185318 804.575745,245.183746 807.696533,244.168030 
	C808.289551,244.611298 808.509216,245.068710 808.866211,245.739975 
z"/>
<path fill="#D66E2F" opacity="1.000000" stroke="none" 
	d="
M655.044312,390.356110 
	C655.615051,390.021484 656.012939,390.020203 656.709167,390.012299 
	C657.119141,392.542389 656.044983,394.716705 654.602051,397.880890 
	C653.729248,394.818359 654.298035,392.753906 655.044312,390.356110 
z"/>
<path fill="#9D5C2E" opacity="1.000000" stroke="none" 
	d="
M572.405884,284.042511 
	C572.034912,283.745361 572.027344,283.437866 571.974976,282.671021 
	C573.664185,280.777435 575.740295,280.552490 578.677490,280.083588 
	C576.949829,282.830933 574.775452,283.308960 572.405884,284.042511 
z"/>
<path fill="#9D5C2E" opacity="1.000000" stroke="none" 
	d="
M804.273315,191.850281 
	C804.014587,191.452606 804.088928,190.993622 804.050537,190.203949 
	C803.937805,189.873260 803.990906,189.933029 803.959595,189.957916 
	C804.215454,189.822876 804.452454,189.607758 804.817139,189.173721 
	C806.468506,188.315155 807.942078,187.620300 810.614258,186.360291 
	C808.923706,189.876404 806.451782,190.491135 804.273315,191.850281 
z"/>
<path fill="#9D5C2E" opacity="1.000000" stroke="none" 
	d="
M518.316345,398.842957 
	C518.060852,398.390381 518.046082,398.117004 518.005981,397.433777 
	C520.217529,397.461090 522.289978,398.243103 524.721741,400.059357 
	C521.991455,400.637024 520.305359,399.632782 518.316345,398.842957 
z"/>
<path fill="#F18332" opacity="1.000000" stroke="none" 
	d="
M642.720703,249.663345 
	C639.447327,249.050308 639.131714,246.369522 639.072388,243.153412 
	C640.916321,244.600266 641.670959,247.029999 642.720703,249.663345 
z"/>
<path fill="#9D5C2E" opacity="1.000000" stroke="none" 
	d="
M567.167908,273.803925 
	C566.043640,273.538391 565.273010,273.278473 564.196960,272.934631 
	C566.492676,272.204132 569.093933,271.557648 572.139038,270.800842 
	C571.068604,273.454773 568.998291,273.106384 567.167908,273.803925 
z"/>
<path fill="#D66E2F" opacity="1.000000" stroke="none" 
	d="
M614.688354,355.393250 
	C614.121826,357.327759 612.263916,358.349701 610.305420,359.740692 
	C609.801086,359.784241 609.644836,359.693634 609.180176,359.228882 
	C610.476929,357.793884 612.082153,356.733093 613.980591,355.443420 
	C614.273743,355.214600 614.552307,355.576721 614.688354,355.393250 
z"/>
<path fill="#553D30" opacity="1.000000" stroke="none" 
	d="
M617.279968,353.905304 
	C617.309143,352.217682 618.084473,350.863068 620.303894,350.456451 
	C620.510132,352.554657 619.155701,353.278748 617.279968,353.905304 
z"/>
<path fill="#3D322E" opacity="1.000000" stroke="none" 
	d="
M85.055214,622.382690 
	C86.115028,622.184204 87.289482,622.300476 88.759048,622.611816 
	C87.721970,624.095764 86.416451,624.439819 85.055214,622.382690 
z"/>
<path fill="#F98835" opacity="1.000000" stroke="none" 
	d="
M560.440002,659.334351 
	C562.478577,659.890137 561.869812,661.723755 561.991333,663.663330 
	C560.886414,662.785950 560.760986,661.189880 560.440002,659.334351 
z"/>
<path fill="#D66E2F" opacity="1.000000" stroke="none" 
	d="
M776.703247,387.188293 
	C776.627869,388.483673 775.638306,388.878143 774.030884,388.818085 
	C774.584167,388.260590 775.486633,387.739990 776.703247,387.188293 
z"/>
<path fill="#F48735" opacity="1.000000" stroke="none" 
	d="
M474.622742,377.939331 
	C474.793457,378.691193 474.857239,379.680511 473.294556,379.336365 
	C473.503448,378.811127 473.927612,378.424561 474.622742,377.939331 
z"/>
<path fill="#3D322E" opacity="1.000000" stroke="none" 
	d="
M758.928589,245.035904 
	C758.568176,245.423035 758.049805,245.606186 757.252686,245.750443 
	C757.273865,244.807693 757.675659,244.111801 758.928589,245.035904 
z"/>
<path fill="#3D322E" opacity="1.000000" stroke="none" 
	d="
M766.711426,245.072296 
	C765.846313,245.256439 764.811401,245.160553 763.392700,244.994370 
	C764.152893,243.979736 765.323303,243.744781 766.711426,245.072296 
z"/>
<path fill="#D66E2F" opacity="1.000000" stroke="none" 
	d="
M607.388733,361.422119 
	C606.608704,361.338501 605.810852,361.229462 604.611328,361.107971 
	C604.892944,360.703949 605.576355,360.312439 606.842407,360.050781 
	C607.503113,360.387238 607.581299,360.593872 607.487915,361.084015 
	C607.316223,361.367493 607.370972,361.396667 607.388733,361.422119 
z"/>
<path fill="#D66E2F" opacity="1.000000" stroke="none" 
	d="
M606.939941,359.930969 
	C607.338806,359.545868 607.820740,359.246613 608.587158,358.901001 
	C608.871643,358.854706 609.017273,359.029785 609.089722,359.117584 
	C609.231812,359.381805 609.301392,359.558258 609.274292,360.002228 
	C609.177612,360.269775 609.081604,360.204590 609.115845,360.157776 
	C608.739990,360.338898 608.301819,360.458740 607.510498,360.320312 
	C607.190002,360.187775 607.023132,360.016754 606.939941,359.930969 
z"/>
<path fill="#F48634" opacity="1.000000" stroke="none" 
	d="
M607.187256,360.486389 
	C607.623962,360.148773 608.057861,360.109772 608.820984,360.090881 
	C608.733337,360.503510 608.316467,360.896057 607.607910,361.328064 
	C607.272339,361.173309 607.228394,360.979156 607.187256,360.486389 
z"/>
<path fill="#D66E2F" opacity="1.000000" stroke="none" 
	d="
M658.032471,386.590393 
	C657.878052,386.328522 657.885193,385.964325 657.932739,385.329895 
	C658.046692,385.535797 658.120300,386.011932 658.032471,386.590393 
z"/>
<path fill="#503C30" opacity="1.000000" stroke="none" 
	d="
M465.137878,702.074585 
	C465.466492,702.267517 465.788574,702.777771 466.135559,703.595337 
	C465.817444,703.399109 465.474396,702.895447 465.137878,702.074585 
z"/>
<path fill="#F38433" opacity="1.000000" stroke="none" 
	d="
M804.745850,189.093353 
	C804.799377,189.278061 804.603882,189.546127 804.168335,189.898499 
	C804.117859,189.714127 804.307312,189.445419 804.745850,189.093353 
z"/>
<path fill="#F48634" opacity="1.000000" stroke="none" 
	d="
M581.047852,335.015869 
	C581.034668,335.025391 581.240417,334.865112 581.240417,334.865112 
	C581.240417,334.865112 580.955261,334.885742 581.028687,334.940033 
	C581.102112,334.994324 581.061035,335.006317 581.047852,335.015869 
z"/>
<path fill="#553D30" opacity="1.000000" stroke="none" 
	d="
M617.044067,354.063934 
	C616.924988,354.231232 616.640320,354.767517 616.719238,353.941040 
	C616.817871,353.846802 616.971252,353.988953 617.044067,354.063934 
z"/>
<path fill="#553D30" opacity="1.000000" stroke="none" 
	d="
M614.412354,355.315552 
	C614.273743,355.214600 614.732117,355.183777 614.778198,355.196777 
	C614.824341,355.209747 614.550903,355.416473 614.412354,355.315552 
z"/>
<path fill="#F48634" opacity="1.000000" stroke="none" 
	d="
M609.394714,360.214874 
	C609.161133,360.092255 609.144592,359.914703 609.145142,359.471252 
	C609.404541,359.259125 609.600647,359.384918 609.853882,359.728821 
	C609.957275,359.874878 609.611816,360.159973 609.394714,360.214874 
z"/>
<path fill="#F48735" opacity="1.000000" stroke="none" 
	d="
M475.744080,377.088257 
	C475.821899,377.347870 475.580719,377.569275 475.063599,377.838257 
	C475.049377,377.660858 475.261841,377.382294 475.744080,377.088257 
z"/>
<path fill="#D66E2F" opacity="1.000000" stroke="none" 
	d="
M657.114990,387.855682 
	C656.985779,387.740448 657.053406,387.473419 657.375671,387.087158 
	C657.413818,387.184174 657.307678,387.429504 657.114990,387.855682 
z"/>
<path fill="#E17E33" opacity="1.000000" stroke="none" 
	d="
M485.827881,449.563416 
	C485.849030,449.697723 485.685059,449.823792 485.349915,449.971191 
	C485.299194,449.816376 485.453857,449.670593 485.827881,449.563416 
z"/>
<path fill="#553D30" opacity="1.000000" stroke="none" 
	d="
M265.657806,597.263672 
	C265.987366,599.503418 264.946594,600.992615 262.824768,601.815674 
	C248.934265,607.203552 235.389252,613.661926 220.916641,617.296936 
	C209.463898,620.173340 197.981201,623.076660 185.911118,623.165405 
	C175.980164,623.238403 166.206970,623.997192 156.193466,622.433777 
	C149.553284,621.396912 142.408417,623.625854 135.485718,624.357422 
	C125.548698,625.407593 115.603401,625.282837 105.313110,624.253296 
	C125.238914,624.039246 145.415680,622.952881 165.671936,618.929199 
	C178.509888,618.274658 190.591171,615.061096 202.780762,612.579285 
	C223.807480,608.298279 244.513535,602.661865 265.657806,597.263672 
z"/>
<path fill="#503C30" opacity="1.000000" stroke="none" 
	d="
M351.688599,530.834961 
	C352.504730,536.342102 351.314789,541.035767 347.638092,545.185913 
	C345.794800,547.266541 345.132538,550.157959 345.026886,553.416321 
	C330.502899,558.689087 315.981995,563.578735 301.080383,568.658875 
	C300.578766,568.631104 300.457916,568.412842 300.293762,567.822876 
	C300.883270,564.483887 303.480408,563.372986 305.632660,561.931885 
	C318.431488,553.362000 331.628906,545.379089 343.612488,535.617249 
	C345.969727,533.697021 347.882019,530.880737 351.688599,530.834961 
z"/>
<path fill="#F18332" opacity="1.000000" stroke="none" 
	d="
M352.120422,530.754761 
	C336.505890,544.787292 318.920593,555.607544 301.198456,566.816711 
	C299.974548,568.053772 299.016235,569.083801 297.237335,569.078796 
	C297.301453,566.780029 297.626282,564.720459 297.958069,562.266602 
	C311.847351,553.131287 325.738953,544.405029 339.605988,535.639893 
	C343.528564,533.160522 347.379364,530.567688 351.603333,527.962402 
	C352.209991,528.195923 352.476349,528.493835 352.993958,528.957581 
	C352.907959,529.579407 352.570740,530.035461 352.120422,530.754761 
z"/>
<path fill="#D66E2F" opacity="1.000000" stroke="none" 
	d="
M297.120941,569.098083 
	C298.069519,568.239197 299.162354,567.638855 300.565247,566.990234 
	C300.846222,567.259460 300.817169,567.576965 300.743896,568.371948 
	C299.662140,569.744995 298.595490,570.443176 297.120941,569.098083 
z"/>
<path fill="#D66E2F" opacity="1.000000" stroke="none" 
	d="
M293.495483,571.474976 
	C293.527649,571.460266 293.463348,571.489624 293.495483,571.474976 
z"/>
<path fill="#D66E2F" opacity="1.000000" stroke="none" 
	d="
M295.476013,570.461426 
	C295.524353,570.435852 295.427673,570.487000 295.476013,570.461426 
z"/>
<path fill="#302D2F" opacity="1.000000" stroke="none" 
	d="
M782.045532,262.092285 
	C780.805725,261.597992 779.893982,261.233002 777.586487,260.309296 
	C791.374084,257.679016 802.970154,251.371475 816.121155,252.012756 
	C824.606445,252.426544 830.231018,257.448608 833.850220,264.673889 
	C837.613770,272.187531 835.476929,279.058044 830.175781,286.540771 
	C829.602417,280.380798 830.225342,275.072327 827.019104,270.218597 
	C829.316772,283.454590 824.969727,293.618500 813.242676,300.845001 
	C812.840576,294.423737 814.114990,287.779205 809.579956,282.145813 
	C809.870667,295.400482 807.575195,304.072540 802.506958,308.760986 
	C806.497742,288.521393 802.164490,271.993134 782.045532,262.092285 
z"/>
<path fill="#2B2C2F" opacity="1.000000" stroke="none" 
	d="
M790.170288,320.204010 
	C789.748657,321.008026 789.149658,321.349945 789.251709,319.760590 
	C789.563599,319.665192 789.740967,319.814667 790.170288,320.204010 
z"/>
<path fill="#302D2F" opacity="1.000000" stroke="none" 
	d="
M472.362976,420.507782 
	C474.642548,427.736420 477.299042,434.714813 472.350555,441.955688 
	C471.474121,442.473694 471.522675,443.052917 471.228973,443.747375 
	C471.038330,443.936859 470.930573,443.958466 470.937744,444.012939 
	C470.296570,444.818176 470.107697,445.852722 469.179749,446.763184 
	C459.878448,458.192261 445.373016,459.191071 433.696808,465.535278 
	C430.138092,467.468903 426.613678,467.843353 426.341095,473.643799 
	C426.144745,477.822296 422.206329,481.824982 419.456970,486.769379 
	C418.234467,480.537201 417.116119,475.505615 412.053589,472.722351 
	C410.416565,471.822357 411.190308,470.416473 411.355682,469.178986 
	C411.652740,466.956238 412.398560,464.752441 411.098389,461.004181 
	C408.585785,477.466858 392.549042,478.908203 383.880005,488.638306 
	C388.371979,489.440216 390.923553,486.244812 394.661072,485.746124 
	C398.934052,488.726410 401.110199,492.289368 399.420654,497.658875 
	C398.901306,499.464142 398.833344,501.009796 398.293640,502.368011 
	C396.946136,505.759003 393.942017,507.723145 390.688232,508.017120 
	C387.830780,508.275269 388.569336,504.724426 388.033600,502.994476 
	C384.151398,490.459320 375.836182,482.128265 364.187531,476.729645 
	C363.165741,476.256134 361.936615,476.015930 361.463440,474.360901 
	C364.758179,469.395264 370.442078,469.788483 374.152771,467.777039 
	C370.401733,468.422821 366.219208,471.178223 361.166321,469.277710 
	C364.851501,462.598755 370.454865,457.833588 376.574738,453.816254 
	C381.799286,450.386658 387.528290,447.725494 393.932800,444.234589 
	C388.714752,442.386993 384.884521,444.290833 380.704651,446.262329 
	C380.115448,446.317474 379.871185,446.265411 379.511353,445.856964 
	C381.613678,439.863800 386.220062,438.312531 391.751434,438.024292 
	C404.830902,437.342773 420.899139,446.407837 424.401337,464.588989 
	C424.482880,465.012177 424.851746,465.380005 425.442596,466.370361 
	C428.190674,463.134338 427.398285,459.871307 426.373749,456.945221 
	C422.215332,445.068878 413.488098,437.905762 401.829010,433.991119 
	C400.111267,433.414337 398.279846,433.176056 396.392975,432.757172 
	C397.288635,430.555359 399.478149,430.316467 401.157593,429.495819 
	C412.376892,424.013458 423.352936,418.108490 433.810944,411.264984 
	C446.449371,402.994690 451.221130,403.133728 463.552734,411.941528 
	C466.838013,414.288025 469.602020,417.134399 472.362976,420.507782 
z"/>
<path fill="#373231" opacity="1.000000" stroke="none" 
	d="
M366.886414,517.641907 
	C368.044891,513.537231 368.186279,509.684418 367.000214,505.705292 
	C365.820740,501.748138 364.326385,500.469940 359.974243,502.707886 
	C343.796295,511.026825 327.381531,518.885193 310.723358,526.990967 
	C309.749969,527.327820 309.073395,527.481628 308.253845,528.011780 
	C308.086761,528.314270 308.125946,528.167419 308.196381,528.195923 
	C296.756561,533.063965 285.471710,538.331787 274.738983,544.778259 
	C271.683258,546.613586 268.400848,548.354919 264.356659,548.755493 
	C261.958893,549.572876 259.918793,550.497253 257.527100,551.566528 
	C256.700592,551.226562 256.494659,550.646179 256.793457,549.551025 
	C286.116608,533.280029 315.171997,517.371948 343.236664,499.736969 
	C345.995117,498.003632 348.650452,496.106201 351.650238,494.085083 
	C347.891022,492.255402 344.811035,483.893616 346.372955,480.936005 
	C347.388123,479.013672 349.228363,478.111328 351.394348,478.297760 
	C367.348083,479.670746 386.358398,498.799561 381.990875,516.035889 
	C380.672241,521.240051 380.209106,521.641418 374.939575,519.988220 
	C372.402771,519.192261 369.803131,518.596619 366.886414,517.641907 
z"/>
<path fill="#503C30" opacity="1.000000" stroke="none" 
	d="
M171.451019,584.140381 
	C172.782852,578.646545 177.199829,575.388916 181.931717,573.219849 
	C195.628387,566.941345 208.631226,559.203003 222.715561,553.788879 
	C225.699570,552.641724 229.026566,551.852173 232.720764,552.884155 
	C212.950577,563.993225 192.684174,574.635925 171.451019,584.140381 
z"/>
<path fill="#9D5C2E" opacity="1.000000" stroke="none" 
	d="
M264.147644,548.918213 
	C278.455200,541.744324 291.934753,532.767944 307.869629,528.191284 
	C300.132538,533.773804 290.835297,537.106323 282.276154,541.848938 
	C279.221497,543.541565 276.067383,545.054749 272.416992,546.804565 
	C271.875336,546.959229 271.440552,547.131470 271.244995,547.260559 
	C270.751678,547.500366 270.486786,547.664124 270.064880,548.019836 
	C268.598419,548.889893 267.321808,549.621216 265.825378,550.432617 
	C265.169159,550.071167 264.732758,549.629517 264.147644,548.918213 
z"/>
<path fill="#3D322E" opacity="1.000000" stroke="none" 
	d="
M397.730072,484.353699 
	C398.777588,481.557526 400.202271,479.803375 403.473022,480.030090 
	C407.254761,484.669495 409.220398,489.596832 407.098724,495.708710 
	C405.958466,497.754181 405.300018,499.620544 403.486115,500.843811 
	C402.152374,499.183289 403.654053,497.445099 402.642090,495.652283 
	C398.983429,492.622314 397.821381,488.877747 397.730072,484.353699 
z"/>
<path fill="#3D322E" opacity="1.000000" stroke="none" 
	d="
M406.236511,480.302979 
	C405.837799,478.320282 406.094727,476.860077 407.744843,476.248413 
	C409.082031,475.752655 409.699982,477.134705 410.398499,477.976074 
	C414.135315,482.477173 414.578674,488.768219 411.298828,494.189148 
	C409.933685,494.451630 408.993073,493.868988 408.823273,492.895813 
	C408.105103,488.779480 405.938049,484.989441 406.236511,480.302979 
z"/>
<path fill="#E17E33" opacity="1.000000" stroke="none" 
	d="
M360.977295,469.002563 
	C365.300446,469.216827 369.057068,466.485718 373.425293,466.550537 
	C375.697174,466.584259 377.953278,466.137634 381.097992,467.884949 
	C373.847015,469.015198 368.258789,472.011536 361.851715,473.894043 
	C361.452637,473.968811 361.518738,473.976776 361.529938,474.008118 
	C359.608551,473.029419 359.677124,471.488495 360.699097,469.359924 
	C360.989258,468.948242 361.006409,469.004272 360.977295,469.002563 
z"/>
<path fill="#553D30" opacity="1.000000" stroke="none" 
	d="
M256.685425,549.188782 
	C257.053741,549.704773 257.078156,550.277832 257.139038,551.281189 
	C250.096252,555.928711 242.539307,559.132446 234.436981,562.078003 
	C240.846344,556.712708 248.946594,553.600586 256.685425,549.188782 
z"/>
<path fill="#E17E33" opacity="1.000000" stroke="none" 
	d="
M405.957306,479.946472 
	C408.871155,484.283539 409.939514,489.044250 410.674866,494.233002 
	C410.754089,497.556732 408.449524,495.171509 407.031799,495.933838 
	C406.836426,490.766937 404.840393,485.922180 403.829651,480.483521 
	C404.401581,480.045349 404.967163,480.009369 405.957306,479.946472 
z"/>
<path fill="#F48735" opacity="1.000000" stroke="none" 
	d="
M397.587189,484.044250 
	C399.750702,487.381134 401.916168,490.636902 402.454163,494.948944 
	C401.854675,496.402283 401.192261,497.443176 399.537598,497.920654 
	C399.024841,493.783478 396.540070,490.380035 395.107422,486.219299 
	C395.557587,484.966431 396.251465,484.305908 397.587189,484.044250 
z"/>
<path fill="#D66E2F" opacity="1.000000" stroke="none" 
	d="
M232.716034,562.925903 
	C229.235153,565.416931 225.501373,567.724792 221.053635,568.491272 
	C223.737274,565.688965 227.166641,564.204651 231.097137,563.001221 
	C231.749878,562.850403 232.060318,562.691895 232.716034,562.925903 
z"/>
<path fill="#302D2F" opacity="1.000000" stroke="none" 
	d="
M360.633942,468.854736 
	C362.076721,470.271271 361.532959,471.746063 361.462219,473.611816 
	C359.769989,474.248901 357.129028,475.878754 356.515137,473.708710 
	C355.973419,471.793854 357.927277,469.622009 360.633942,468.854736 
z"/>
<path fill="#D66E2F" opacity="1.000000" stroke="none" 
	d="
M469.280975,446.887085 
	C469.441650,446.087708 469.924591,445.216400 470.676208,444.206238 
	C470.983032,445.220306 470.864349,446.296600 469.280975,446.887085 
z"/>
<path fill="#553D30" opacity="1.000000" stroke="none" 
	d="
M233.291504,563.165405 
	C232.794479,563.250183 232.527618,563.181946 231.850128,563.061340 
	C232.049377,562.684998 232.659271,562.361084 233.612122,561.995850 
	C233.955078,561.954529 234.055634,562.057312 234.109558,562.112061 
	C233.949539,562.448669 233.735580,562.730530 233.291504,563.165405 
z"/>
<path fill="#D66E2F" opacity="1.000000" stroke="none" 
	d="
M471.280853,443.954590 
	C471.230316,443.453369 471.422333,442.969910 471.846191,442.350281 
	C472.063629,442.598877 472.049255,442.983612 472.021912,443.655701 
	C472.008881,443.942993 471.523407,443.972321 471.280853,443.954590 
z"/>
<path fill="#D66E2F" opacity="1.000000" stroke="none" 
	d="
M216.488495,570.479492 
	C216.519791,570.465515 216.457199,570.493408 216.488495,570.479492 
z"/>
<path fill="#D66E2F" opacity="1.000000" stroke="none" 
	d="
M218.524216,569.535278 
	C218.483017,569.556274 218.565414,569.514221 218.524216,569.535278 
z"/>
<path fill="#9D5C2E" opacity="1.000000" stroke="none" 
	d="
M263.698608,551.505005 
	C263.703430,551.525391 263.728271,551.592896 263.724915,551.560425 
	C263.721588,551.527893 263.693817,551.484558 263.698608,551.505005 
z"/>
<path fill="#302D2F" opacity="1.000000" stroke="none" 
	d="
M380.123718,446.146759 
	C379.751770,446.796906 379.085571,447.405640 379.237762,445.729492 
	C379.559845,445.641724 379.723816,445.782837 380.123718,446.146759 
z"/>
<path fill="#D66E2F" opacity="1.000000" stroke="none" 
	d="
M307.970825,538.499817 
	C317.475372,532.242920 327.413605,527.218628 337.697571,522.175659 
	C338.715118,522.322937 339.097473,522.742615 339.158691,523.652954 
	C329.333374,528.954834 319.624115,533.976013 309.563232,539.061523 
	C308.704193,539.504150 308.282288,539.425537 307.970825,538.499817 
z"/>
<path fill="#E17E33" opacity="1.000000" stroke="none" 
	d="
M307.666260,538.206177 
	C308.247681,538.358948 308.499847,538.607117 308.981812,538.990601 
	C301.405945,543.670776 293.373016,547.761414 284.661499,551.289185 
	C284.019836,551.408142 283.741638,551.459900 283.583069,551.104370 
	C291.207733,545.854004 300.014160,543.492249 307.666260,538.206177 
z"/>
<path fill="#FC8935" opacity="1.000000" stroke="none" 
	d="
M187.753448,595.610168 
	C184.380066,597.362671 181.112274,596.428284 177.598465,596.798035 
	C182.469955,590.940308 184.827866,590.702393 187.753448,595.610168 
z"/>
<path fill="#F48735" opacity="1.000000" stroke="none" 
	d="
M339.357422,523.856934 
	C338.781769,523.503967 338.520905,523.074341 338.159119,522.414551 
	C339.977386,520.565796 339.977386,520.565796 342.764648,519.716125 
	C342.641418,521.902893 341.057343,522.771301 339.357422,523.856934 
z"/>
<path fill="#FC8935" opacity="1.000000" stroke="none" 
	d="
M284.154907,551.186462 
	C282.659790,552.194397 281.021545,553.032288 279.383301,553.870239 
	C279.277649,553.651123 279.172028,553.432007 279.066406,553.212891 
	C280.401855,552.426147 281.737305,551.639343 283.387726,550.774902 
	C283.702698,550.697144 284.011780,551.016479 284.154907,551.186462 
z"/>
<path fill="#F38431" opacity="1.000000" stroke="none" 
	d="
M270.228149,548.101685 
	C270.185974,547.668640 270.496887,547.178589 271.148254,546.412598 
	C271.488678,546.136536 271.766724,546.519531 271.583130,546.370239 
	C271.561829,546.308594 271.724060,546.396240 272.105011,546.656433 
	C271.742920,547.234253 271.162109,547.639526 270.228149,548.101685 
z"/>
<path fill="#9D5C2E" opacity="1.000000" stroke="none" 
	d="
M308.429138,528.289001 
	C308.620911,527.906128 309.155029,527.497925 310.040100,527.077576 
	C309.851196,527.464844 309.311340,527.864258 308.429138,528.289001 
z"/>
<path fill="#3D322E" opacity="1.000000" stroke="none" 
	d="
M583.592896,304.038086 
	C582.327271,308.152618 585.784973,304.080170 586.094788,306.066223 
	C583.086914,307.384003 581.389832,312.862518 578.246094,311.553345 
	C573.659180,309.643127 568.438660,312.648407 564.017151,308.907166 
	C571.744202,304.913940 579.692810,302.680634 587.263977,299.532471 
	C588.138733,299.168701 589.144043,299.118591 590.482544,299.652802 
	C588.270508,301.053528 586.058533,302.454254 583.592896,304.038086 
z"/>
<path fill="#3D322E" opacity="1.000000" stroke="none" 
	d="
M547.386108,317.547424 
	C546.378052,314.164001 545.080139,311.319794 542.724182,308.055939 
	C548.441650,309.372040 553.657349,309.584747 557.568909,314.116028 
	C554.349609,315.744720 552.106750,312.188385 549.005920,313.385803 
	C550.436523,317.448792 553.536438,319.443512 557.386353,320.626953 
	C558.563110,320.988708 560.399170,320.830170 559.866882,322.848175 
	C559.483215,324.302887 558.092712,324.666321 556.669617,324.674835 
	C551.921082,324.703186 548.848999,322.486298 547.386108,317.547424 
z"/>
<path fill="#F18332" opacity="1.000000" stroke="none" 
	d="
M760.834229,281.123291 
	C760.906006,281.058929 761.003662,280.995819 761.005493,281.036255 
	C760.909729,281.139801 760.860107,281.124573 760.834229,281.123291 
z"/>
<path fill="#D66E2F" opacity="1.000000" stroke="none" 
	d="
M440.273743,451.908264 
	C438.448181,456.704712 435.277924,460.554016 431.601593,463.993408 
	C431.164032,463.746002 430.726471,463.498596 430.288910,463.251190 
	C432.580658,458.344604 434.872375,453.437988 437.363190,448.105133 
	C438.017456,449.309235 438.526581,450.246185 439.258301,451.502319 
	C439.659027,451.827911 439.837097,451.834320 440.273743,451.908264 
z"/>
<path fill="#E17E33" opacity="1.000000" stroke="none" 
	d="
M443.201752,450.462402 
	C446.201080,448.880768 446.866638,446.149628 447.560699,442.902313 
	C450.157776,448.599030 447.911011,452.529175 442.987610,452.111908 
	C441.479462,451.984100 442.174103,451.186005 443.201752,450.462402 
z"/>
<path fill="#E17E33" opacity="1.000000" stroke="none" 
	d="
M440.372162,451.865417 
	C440.296814,451.909424 440.059357,451.850891 439.650452,451.810852 
	C439.715790,451.704803 439.959473,451.682678 440.372162,451.865417 
z"/>
<path fill="#373231" opacity="1.000000" stroke="none" 
	d="
M271.401276,546.248901 
	C271.399567,546.220886 271.541473,546.286316 271.515076,546.211426 
	C271.488678,546.136536 271.402985,546.276978 271.401276,546.248901 
z"/>
</svg>